# xmcd
#
# Track frame offsets: 
#        150
#        18604
#        35928
#        52723
#        66993
#        82160
#        102944
#        118345
#        138407
#        156740
#        173605
#        191325
#        214304
#        233433
#        253101
#        277168
#        295377
#        308007
#
# Disc length: 4366 seconds
#
# Revision: 0
# Processed by: cddbd v1.5.2PL0 Copyright (c) Steve Scherf et al.
# Submitted via: ExactAudioCopy v0.95b3
#
DISCID=15110c12
DTITLE=Various Artist - Only for lovers II(Forever in love)
DYEAR=1900
DGENRE=Blues
TTITLE0=Berlin - Take my broth away
TTITLE1=Lionel Richie - Hello
TTITLE2=Glenn Medeiros - Noting's gonna change my love for you
TTITLE3=Stevie B. - Becouse I love you
TTITLE4=Beverley Crave - Promise me
TTITLE5=Bryan Adams - Have you ever really loveved
TTITLE6=Mariah Carrey - Without you
TTITLE7=Terence Trent D'arby - Sign your name
TTITLE8=Roxette - Must have been love
TTITLE9=Richar Marx - Right here waiting
TTITLE10=Gary More - Still got the blues
TTITLE11=Scorpions - Wind of change
TTITLE12=Guns n' Roses - Dont'cry
TTITLE13=Eurythmics - Miracle of love
TTITLE14=Meat Loaf - I'd do anyting for love
TTITLE15=Bonnie Tylor - Total eclipse of the heart
TTITLE16=Roy Orbison - PRetty Woman
TTITLE17=Cris Issak - Wicked game
EXTD=
EXTT0=
EXTT1=
EXTT2=
EXTT3=
EXTT4=
EXTT5=
EXTT6=
EXTT7=
EXTT8=
EXTT9=
EXTT10=
EXTT11=
EXTT12=
EXTT13=
EXTT14=
EXTT15=
EXTT16=
EXTT17=
PLAYORDER=
